<?xml version="1.0" encoding="UTF-8"?>
<svg id="Layer_1" data-name="Layer 1" xmlns="http://www.w3.org/2000/svg" viewBox="0 0 1009.86 964.42">
  <defs>
    <style>
      .cls-1 {
        fill: #03c9a9;
        stroke-width: 0px;
      }
    </style>
  </defs>
  <path class="cls-1" d="m457.87,613.14c-7.55,91.28-11.02,182.64-21.5,273.45-7.04,60.99-45.69,88.1-105.01,73.74-37.84-9.16-70.69-27.81-99.09-54-25.8-23.79-26.36-54.69-3.08-80.96,65.66-74.07,134.56-145.1,202.85-216.69,1.75-1.83,3.29-4,5.35-5.39,5.5-3.67,9.71-13.05,16.97-9.33,6.93,3.55,2.41,12.76,3.51,19.18h-.01Z"/>
  <path class="cls-1" d="m457.23,321.78c.74,11.4,1.62,22.79,2.16,34.21.21,4.37.82,9.75-3.54,12.18-5.97,3.33-9.2-2.52-12.46-5.85-27.6-28.05-55.38-55.93-82.36-84.57-43.5-46.17-86.54-92.78-129.54-139.41-25.76-27.93-24.4-58.1,5.04-82.63C273.15,25.21,313.28,1.32,362.96.61c36.32-.52,63.09,20.14,71.66,55.81,9.22,38.41,9.76,78,13.41,117.11,4.6,49.27,6.37,98.81,9.36,148.24h-.16Z"/>
  <path class="cls-1" d="m644.83,435.36c9.04-18.06,22.78-30.5,35.43-43.54,60.92-62.79,122.18-125.27,183.57-187.61,31.12-31.61,61.83-31.3,91.45,1.55,25.89,28.72,43.52,62.43,52.3,100.07,10.71,45.98-17.34,91.07-63.89,98.13-96.63,14.65-193.73,25.94-291.22,33.54-1.72.13-3.53-.94-7.64-2.12v-.02Z"/>
  <path class="cls-1" d="m552.54,316.27c5.47-76.54,10.89-153.1,16.53-229.64.61-8.18,1.99-16.41,4.04-24.35,12.7-48.95,43.73-69.64,93.57-59.96,43.96,8.53,82.18,29.51,113.71,61.51,19.58,19.88,19.62,49.91.64,70.42-70,75.63-140.19,151.07-210.42,226.49-3.74,4.01-7.47,10.48-13.81,8.28-7.6-2.62-5.57-10.73-5.47-16.61.19-12.03,1.52-24.05,2.4-36.07-.4-.03-.8-.05-1.19-.08h0Z"/>
  <path class="cls-1" d="m549.62,617.19c1.68-6.95-4.55-18.21,3.57-21.92,8.29-3.79,13.79,7.16,19,12.73,69.71,74.55,139.23,149.26,208.35,224.36,19.07,20.72,18.12,50.9-2.37,70.04-33.12,30.93-71.85,52.18-116.75,60.42-41.56,7.63-73.58-12.39-86.31-53.04-9.59-30.64-9.2-62.71-11.8-94.21-5.44-65.78-9.19-131.69-13.69-198.38h0Z"/>
  <path class="cls-1" d="m339.85,436.69c-91.67-7.91-182.79-19.98-273.79-32.65-47.04-6.54-74.34-51.7-63.61-100.08,8.55-38.55,27.98-72.24,53.66-101.63,24.55-28.11,55.35-30.4,81.62-4.35,51.67,51.27,101.2,104.7,151.85,157.01,19.81,20.45,40.54,40.02,60.23,60.57,4.98,5.2,15.39,10.27,12.29,17.55-3.88,9.09-14.75,1.14-22.25,3.59h0Z"/>
  <path class="cls-1" d="m662.3,525.83c89.85,11.81,179.69,23.71,269.55,35.42,39.84,5.19,68.12,29,75.8,64.18,3.81,17.48-.08,34.27-5.7,50.45-12,34.54-30.09,65.69-56.22,91.54-20.05,19.83-52.12,22.42-70.6,2.89-72.71-76.82-150.39-148.81-220.81-227.84-3.19-3.58-8.9-7-5.98-12.73,2.96-5.82,9.07-2.02,13.97-3.91h-.01Z"/>
  <path class="cls-1" d="m.01,653.16c.12-51.66,26.89-85.69,63.46-90.65,90.49-12.28,181.14-23.3,271.74-34.76,4.39-.56,8.9-.95,13.3-.62,4.67.35,11.08-3.22,13.61,2.92,2.39,5.79-3.69,8.78-7.05,12.2-50.6,51.65-101.34,103.14-151.92,154.8-21.74,22.21-42.42,45.53-64.95,66.91-28.54,27.09-60.07,26.09-84.46-3.71C25.03,725.17,1.28,687.08,0,653.15h.01Z"/>
</svg>